<?xml version="1.0"?> <svg xmlns="http://www.w3.org/2000/svg" id="Layer_2" data-name="Layer 2" viewBox="0 0 679.98 421.71"><defs></defs><g id="Layer_1-2" data-name="Layer 1"><g><g><path class="cls-1" d="M2.08,277.44c-.46,0-.84-.38-.84-.84V.87C1.24.41,1.62.03,2.08.03s.84.37.84.84v275.73c0,.46-.38.84-.84.84Z"></path><path class="cls-1" d="M24.52,260.17c-.46,0-.84-.38-.84-.84V.87c0-.46.38-.84.84-.84s.84.37.84.84v258.47c0,.46-.38.84-.84.84Z"></path><path class="cls-1" d="M46.96,243.54c-.46,0-.84-.38-.84-.84V.87c0-.46.38-.84.84-.84s.84.37.84.84v241.83c0,.46-.38.84-.84.84Z"></path><path class="cls-1" d="M69.39,225.55c-.46,0-.84-.37-.84-.84V.87c0-.46.38-.84.84-.84s.84.37.84.84v223.84c0,.46-.38.84-.84.84Z"></path><path class="cls-1" d="M93.43,208.57c-.46,0-.84-.37-.84-.84V.87c0-.46.38-.84.84-.84s.84.37.84.84v206.87c0,.46-.38.84-.84.84Z"></path><path class="cls-1" d="M.84,331.08c-.25,0-.5-.11-.66-.32-.29-.37-.22-.89.14-1.18l115.84-90.62c16.95-13.32,22.11-25.04,22.11-50.17V.84c0-.46.38-.84.84-.84s.84.37.84.84v187.95c0,25.44-5.53,37.95-22.75,51.48L1.35,330.9c-.15.12-.34.18-.52.18Z"></path><path class="cls-1" d="M.84,362.31c-.25,0-.49-.11-.66-.32-.29-.36-.23-.89.14-1.18l130.69-103.6c20.65-16.2,29.71-27.57,29.71-68.42V1.04c0-.46.38-.84.84-.84s.84.37.84.84v187.75c0,41.59-9.25,53.19-30.34,69.74L1.36,362.13c-.15.12-.34.18-.52.18Z"></path><path class="cls-1" d="M.84,390.14c-.25,0-.5-.11-.66-.32-.28-.37-.22-.89.15-1.17l145.08-112.54c28.67-21.47,37.74-30.95,37.74-87.32V1.04c0-.46.38-.84.84-.84s.84.37.84.84v187.75c0,57.17-9.23,66.81-38.4,88.65L1.35,389.97c-.15.12-.33.18-.51.18Z"></path><path class="cls-1" d="M.84,421.71c-.25,0-.5-.11-.66-.32-.29-.36-.22-.89.14-1.18l160.1-125.28c41.09-32.58,46.77-45.47,46.77-106.14V1.04c0-.46.38-.84.84-.84s.84.37.84.84v187.75c0,29.19-1.38,49.17-8.46,64.93-6.83,15.21-18.96,26.68-38.95,42.53L1.35,421.54c-.15.12-.34.18-.52.18Z"></path><path class="cls-1" d="M.84,302.85c-.25,0-.5-.11-.66-.32-.29-.36-.22-.89.14-1.17,0,0,25.28-19.76,50.57-39.51,12.64-9.88,25.29-19.75,34.78-27.15,4.74-3.7,8.7-6.78,11.47-8.94,2.38-1.85,3.62-2.82,4.33-3.26l-.04-.05.05.05s.05-.03.07-.04l-.05-.06c13.45-10.82,14.34-14.38,14.34-34.21V.85c0-.46.38-.84.84-.84s.84.37.84.84v187.33c0,19.93-1.11,24.37-14.96,35.51l-.32-.36.27.4c-1.41,1-100.15,78.16-101.14,78.94-.15.12-.33.18-.51.18Z"></path></g><g><rect class="cls-1" x="243.44" y="178.32" width="2.02" height="53.37" rx="1.01" ry="1.01"></rect><path class="cls-1" d="M289.3,229.74h-29.45v-50.41c0-.56-.45-1.01-1.01-1.01h0c-.56,0-1.01.45-1.01,1.01v52.36h31.47c.54,0,.97-.44.97-.97h0c0-.54-.44-.97-.97-.97Z"></path><path class="cls-1" d="M325.26,230.89c2.24-.75,4.09-1.8,5.49-3.12,1.4-1.32,2.43-2.91,3.05-4.72.62-1.8.94-3.76.94-5.85,0-2.59-.43-4.79-1.28-6.54-.85-1.75-1.98-3.18-3.36-4.26-1.37-1.07-2.98-1.9-4.77-2.44-1.78-.54-3.64-.97-5.52-1.27l-5.94-.89c-1.87-.29-3.62-.69-5.2-1.18-1.58-.48-2.96-1.17-4.13-2.05-1.16-.87-2.07-2-2.72-3.38-.65-1.38-.98-3.16-.98-5.3s.37-3.98,1.09-5.48c.73-1.5,1.78-2.75,3.13-3.71,1.36-.97,3-1.68,4.87-2.12,1.88-.44,4-.66,6.3-.66,2.54,0,4.77.27,6.62.81,1.84.53,3.38,1.3,4.57,2.26,1.19.97,2.18,2.16,2.96,3.54.64,1.14,1.17,2.38,1.58,3.7.15.49.66.79,1.16.67h0c.54-.14.85-.7.68-1.23-.34-1.09-.78-2.21-1.33-3.35-.72-1.5-1.74-2.88-3.01-4.1-1.27-1.22-3.03-2.25-5.23-3.05-2.19-.8-4.88-1.2-8.01-1.2-2.53,0-4.89.29-7.03.86-2.14.57-4,1.44-5.52,2.59-1.53,1.15-2.73,2.62-3.58,4.37-.85,1.75-1.28,3.83-1.28,6.17s.39,4.42,1.17,6.02c.78,1.6,1.83,2.94,3.13,3.96,1.3,1.02,2.83,1.83,4.55,2.41,1.71.57,3.55,1.01,5.49,1.31l6.01.96c1.86.29,3.64.69,5.28,1.18,1.62.49,3.06,1.19,4.28,2.08,1.21.89,2.17,2.09,2.87,3.56.7,1.48,1.06,3.41,1.06,5.74,0,1.8-.27,3.5-.8,5.06-.53,1.54-1.4,2.92-2.59,4.08-1.19,1.16-2.79,2.08-4.75,2.74-1.97.66-4.46.99-7.39.99-4.89,0-8.93-1.01-12.03-3.01-2.87-1.85-4.75-4.59-5.58-8.15-.1-.44-.49-.76-.95-.75h0c-.59.02-1.01.57-.89,1.14.41,2.03,1.13,3.81,2.14,5.32,1.2,1.77,2.7,3.21,4.47,4.29,1.76,1.07,3.77,1.86,5.96,2.36,2.18.5,4.49.75,6.87.75,3.17,0,5.92-.38,8.15-1.12Z"></path><path class="cls-1" d="M374.86,229.74h-30.34v-24.61h28.19c.54,0,.97-.44.97-.97h0c0-.54-.44-.98-.97-.98h-28.19v-22.91h29.67c.54,0,.97-.44.97-.97h0c0-.54-.44-.97-.97-.97h-29.33c-1.31,0-2.36,1.06-2.36,2.36v48.64c0,1.31,1.06,2.36,2.36,2.36h30c.54,0,.97-.44.97-.97h0c0-.54-.44-.97-.97-.97Z"></path><path class="cls-1" d="M421.81,231.94c2.02-.72,3.77-1.85,5.19-3.35,1.42-1.5,2.54-3.42,3.31-5.71.77-2.28,1.16-5.02,1.16-8.15v-35.39c0-.56-.45-1.01-1.01-1.01h0c-.56,0-1.01.45-1.01,1.01v35.24c0,5.56-1.22,9.75-3.62,12.45-2.4,2.69-6.03,4.05-10.8,4.05-4.28,0-7.8-1.14-10.45-3.4-2.5-2.13-4.19-5.5-5.03-10.02-.09-.46-.49-.8-.96-.79h0c-.56.02-1,.52-.91,1.07.38,2.49,1.05,4.68,1.99,6.52,1.07,2.09,2.41,3.79,3.99,5.04,1.57,1.25,3.35,2.16,5.3,2.71,1.94.55,3.98.82,6.06.82,2.48,0,4.76-.37,6.78-1.09Z"></path><path class="cls-1" d="M446.48,214.18h26l6.56,16.84c.16.41.55.67.99.67h0c.75,0,1.26-.75.98-1.44l-20.05-50.94c-.23-.6-.81-.99-1.45-.99h0c-.64,0-1.21.39-1.45.99l-20.03,50.89c-.24.62.16,1.31.82,1.39h0c.47.06.91-.21,1.08-.64l6.54-16.77ZM447.23,212.23l12.25-31.47,12.25,31.47h-24.51Z"></path><path class="cls-1" d="M531.38,226.83c2.26-1.59,4.26-3.55,5.94-5.83,1.69-2.28,3.02-4.86,3.96-7.66.94-2.8,1.42-5.71,1.42-8.63,0-3.91-.69-7.58-2.06-10.91-1.36-3.32-3.27-6.24-5.68-8.67-2.41-2.43-5.3-4.37-8.59-5.76-3.3-1.39-6.96-2.09-10.87-2.09s-7.57.69-10.87,2.05c-3.3,1.36-6.19,3.28-8.6,5.68-2.41,2.41-4.32,5.33-5.68,8.67-1.36,3.35-2.06,7.05-2.06,11.02s.72,7.8,2.13,11.1c1.41,3.3,3.38,6.17,5.83,8.52,2.45,2.36,5.36,4.19,8.63,5.46,3.27,1.26,6.79,1.91,10.46,1.91h29.23c.52,0,.94-.42.94-.94h0c0-.52-.42-.94-.94-.94h-19.58c2.26-.6,4.4-1.6,6.37-2.98ZM515.5,179.16c3.67,0,7.08.68,10.16,2.02,3.08,1.34,5.76,3.2,7.99,5.52,2.22,2.32,3.97,5.06,5.19,8.14,1.22,3.08,1.84,6.4,1.84,9.87,0,3.23-.59,6.38-1.77,9.39-1.17,3.01-2.87,5.7-5.04,8.03-2.17,2.32-4.84,4.2-7.91,5.59-3.08,1.39-6.57,2.1-10.38,2.1s-7.09-.66-10.16-1.95c-3.08-1.29-5.77-3.1-7.99-5.37-2.22-2.27-3.98-4.96-5.23-7.99-1.25-3.03-1.88-6.32-1.88-9.79s.62-6.88,1.84-9.98c1.22-3.1,2.97-5.84,5.19-8.13,2.22-2.3,4.91-4.13,7.99-5.45,3.08-1.32,6.5-1.99,10.16-1.99Z"></path><path class="cls-1" d="M589.8,211.17c0,13.21-5.6,19.91-16.65,19.91s-16.65-6.7-16.65-19.91v-31.83c0-.56-.45-1.01-1.01-1.01h0c-.56,0-1.01.45-1.01,1.01v31.61c0,7.38,1.58,12.97,4.68,16.6,3.11,3.64,7.82,5.49,13.99,5.49s10.75-1.85,13.91-5.48c3.16-3.63,4.76-9.22,4.76-16.6v-31.61c0-.56-.45-1.01-1.01-1.01h0c-.56,0-1.01.45-1.01,1.01v31.83Z"></path><path class="cls-1" d="M605.85,205.13h28.19c.54,0,.97-.44.97-.97h0c0-.54-.44-.98-.97-.98h-28.19v-22.91h29.67c.54,0,.97-.44.97-.97h0c0-.54-.44-.97-.97-.97h-29.33c-1.31,0-2.36,1.06-2.36,2.36v48.64c0,1.31,1.06,2.36,2.36,2.36h30c.54,0,.97-.44.97-.97h0c0-.54-.44-.97-.97-.97h-30.34v-24.61Z"></path><path class="cls-1" d="M678.69,211.68c-.85-1.75-1.98-3.18-3.36-4.26-1.37-1.07-2.98-1.9-4.77-2.44-1.78-.54-3.64-.97-5.52-1.27l-5.94-.89c-1.87-.29-3.62-.69-5.2-1.18-1.58-.48-2.96-1.17-4.13-2.05-1.16-.87-2.07-2-2.72-3.38-.65-1.38-.98-3.16-.98-5.3s.37-3.98,1.09-5.48c.73-1.5,1.78-2.75,3.13-3.71,1.36-.97,3-1.68,4.87-2.12,1.88-.44,4-.66,6.3-.66,2.54,0,4.77.27,6.62.81,1.84.53,3.38,1.3,4.57,2.26,1.19.97,2.18,2.16,2.96,3.54.64,1.14,1.17,2.38,1.58,3.7.15.49.66.79,1.16.67h0c.54-.14.85-.7.68-1.23-.34-1.09-.78-2.21-1.33-3.35-.72-1.5-1.74-2.88-3.01-4.1-1.27-1.22-3.03-2.25-5.23-3.05-2.19-.8-4.88-1.2-8.01-1.2-2.53,0-4.89.29-7.03.86-2.14.57-4,1.44-5.52,2.59-1.53,1.15-2.73,2.62-3.58,4.37-.85,1.75-1.28,3.83-1.28,6.17s.39,4.42,1.17,6.02c.78,1.6,1.83,2.94,3.13,3.96,1.3,1.02,2.83,1.83,4.55,2.41,1.71.57,3.55,1.01,5.49,1.31l6.01.96c1.86.29,3.64.69,5.28,1.18,1.62.49,3.07,1.19,4.28,2.08,1.21.89,2.17,2.09,2.87,3.56.7,1.48,1.06,3.41,1.06,5.74,0,1.8-.27,3.5-.8,5.06-.53,1.54-1.4,2.92-2.59,4.08-1.19,1.16-2.79,2.08-4.75,2.74-1.97.66-4.46.99-7.39.99-4.89,0-8.93-1.01-12.03-3.01-2.87-1.85-4.75-4.59-5.58-8.15-.1-.44-.49-.76-.95-.75h0c-.59.02-1.01.57-.89,1.14.41,2.03,1.13,3.81,2.14,5.32,1.2,1.77,2.7,3.21,4.47,4.29,1.76,1.07,3.77,1.86,5.96,2.36,2.18.5,4.49.75,6.87.75,3.17,0,5.92-.38,8.15-1.12,2.24-.75,4.09-1.8,5.49-3.12,1.4-1.32,2.43-2.91,3.05-4.72.62-1.8.94-3.76.94-5.85,0-2.59-.43-4.79-1.28-6.54Z"></path></g></g></g></svg>